<?xml version="1.0" encoding="iso-8859-1"?>
<!-- Generator: Adobe Illustrator 19.0.0, SVG Export Plug-In . SVG Version: 6.00 Build 0)  -->
<svg version="1.1" id="Capa_1" xmlns="http://www.w3.org/2000/svg" xmlns:xlink="http://www.w3.org/1999/xlink" x="0px" y="0px"
	 viewBox="0 0 64 64" style="enable-background:new 0 0 64 64;" xml:space="preserve">
<g id="Barbell-bench-press_1_">
	<path id="Barbell-bench-press" d="M63,5.5h-1V4c0-0.552-0.448-1-1-1c-0.552,0-1,0.448-1,1V2.5c0-0.552-0.448-1-1-1
		c-0.552,0-1,0.448-1,1v-1c0-0.552-0.448-1-1-1c-0.552,0-1,0.448-1,1v4h-6.01c0-0.412-0.246-0.797-0.656-0.942
		c-0.52-0.185-1.092,0.088-1.276,0.608L47.939,5.5H16.061l-0.118-0.334c-0.184-0.522-0.758-0.795-1.276-0.608
		C14.256,4.702,14.01,5.088,14.01,5.5H8v-4c0-0.552-0.448-1-1-1c-0.552,0-1,0.448-1,1v1c0-0.552-0.448-1-1-1c-0.552,0-1,0.448-1,1V4
		c0-0.552-0.448-1-1-1C2.448,3,2,3.447,2,4v1.5H1c-0.552,0-1,0.448-1,1c0,0.552,0.448,1,1,1h1V9c0,0.552,0.448,1,1,1
		c0.552,0,1-0.448,1-1v1.5c0,0.552,0.448,1,1,1c0.552,0,1-0.448,1-1v1c0,0.552,0.448,1,1,1c0.552,0,1-0.448,1-1v-4h6.648
		l6.493,18.334c0.141,0.399,0.519,0.666,0.942,0.666H31v11h-1.846c-0.428,0-0.809,0.273-0.947,0.678L20.284,61.5H15
		c-0.552,0-1,0.448-1,1c0,0.552,0.448,1,1,1h5.997c0,0,0.002,0,0.003,0c0.123,0,0.24-0.029,0.352-0.072
		c0.036-0.013,0.066-0.032,0.1-0.049c0.072-0.037,0.138-0.081,0.2-0.135c0.031-0.027,0.06-0.053,0.087-0.084
		c0.054-0.06,0.096-0.127,0.135-0.2c0.018-0.035,0.04-0.066,0.055-0.103c0.005-0.013,0.014-0.023,0.019-0.036L29.87,39.5h4.073
		l8.113,23.329c0.004,0.01,0.012,0.017,0.016,0.028c0.027,0.07,0.07,0.127,0.111,0.188c0.032,0.048,0.057,0.101,0.096,0.142
		c0.043,0.046,0.099,0.076,0.15,0.113c0.053,0.038,0.101,0.081,0.16,0.108c0.052,0.024,0.109,0.029,0.165,0.043
		c0.071,0.019,0.139,0.041,0.214,0.043c0.011,0,0.021,0.007,0.032,0.007h6c0.552,0,1-0.448,1-1c0-0.552-0.448-1-1-1h-5.289
		l-8.113-23.329c-0.14-0.402-0.519-0.671-0.944-0.671H33v-11h8.917c0.423,0,0.801-0.267,0.942-0.666L49.352,7.5H56v4
		c0,0.552,0.448,1,1,1c0.552,0,1-0.448,1-1v-1c0,0.552,0.448,1,1,1c0.552,0,1-0.448,1-1V9c0,0.552,0.448,1,1,1c0.552,0,1-0.448,1-1
		V7.5h1c0.552,0,1-0.448,1-1C64,5.947,63.552,5.5,63,5.5z M41.21,24.5H33v-2c0-0.035-0.017-0.065-0.02-0.099
		C35.269,21.944,37,19.921,37,17.5c0-2.757-2.243-5-5-5c-2.757,0-5,2.243-5,5c0,2.421,1.731,4.444,4.02,4.901
		C31.016,22.435,31,22.465,31,22.5v2h-8.21l-6.021-17h30.462L41.21,24.5z M32,20.5c-1.654,0-3-1.346-3-3c0-1.654,1.346-3,3-3
		s3,1.346,3,3C35,19.154,33.654,20.5,32,20.5z"/>
</g>
<g>
</g>
<g>
</g>
<g>
</g>
<g>
</g>
<g>
</g>
<g>
</g>
<g>
</g>
<g>
</g>
<g>
</g>
<g>
</g>
<g>
</g>
<g>
</g>
<g>
</g>
<g>
</g>
<g>
</g>
</svg>
